<?xml version="1.0" encoding="UTF-8" standalone="no"?>
<svg
   version="1.1"
   viewBox="0 0 1400 2100"
   id="svg3"
   sodipodi:docname="cover.svg"
   inkscape:version="1.4.4 (dcaf3e7, 2026-05-05)"
   xmlns:inkscape="http://www.inkscape.org/namespaces/inkscape"
   xmlns:sodipodi="http://sodipodi.sourceforge.net/DTD/sodipodi-0.dtd"
   xmlns:xlink="http://www.w3.org/1999/xlink"
   xmlns="http://www.w3.org/2000/svg"
   xmlns:svg="http://www.w3.org/2000/svg"
   xmlns:rdf="http://www.w3.org/1999/02/22-rdf-syntax-ns#"
   xmlns:cc="http://creativecommons.org/ns#"
   xmlns:dc="http://purl.org/dc/elements/1.1/">
  <defs
     id="defs3" />
  <sodipodi:namedview
     id="namedview3"
     pagecolor="#ffffff"
     bordercolor="#000000"
     borderopacity="0.25"
     inkscape:showpageshadow="2"
     inkscape:pageopacity="0.0"
     inkscape:pagecheckerboard="0"
     inkscape:deskcolor="#d1d1d1"
     inkscape:zoom="0.16"
     inkscape:cx="1875"
     inkscape:cy="1165.625"
     inkscape:window-width="1249"
     inkscape:window-height="620"
     inkscape:window-x="0"
     inkscape:window-y="30"
     inkscape:window-maximized="0"
     inkscape:current-layer="svg3" />
  <title
     id="title1">The cover for the Standard Ebooks edition of The Home and the World, by Rabindranath Tagore. Translated by Surendranath Tagore</title>
  <style
     type="text/css"
     id="style1">
		.title-box{
			fill-opacity: .75;
		}

		text{
			fill: #fff;
			font-family: &quot;League Spartan&quot;;
			letter-spacing: 5px;
			text-anchor: middle;
		}

		.title{
			font-size: 93.56725311px;
		}

		.author{
			font-size: 46.7840004px;
		}
	</style>
  <image
     height="2100"
     width="1400"
     x="0"
     y="0"
     xlink:href="../../../images/cover.jpg"
     id="image1" />
  <path
     class="title-box"
     d="M 50,1620 1350,1620 1350,2050 50,2050 Z"
     id="path1" />
  <path
     d="m 490.07902,1720.4971 h -16.65497 v -7.2515 h 41.35672 v 7.2515 H 498.1258 V 1775 h -8.04678 z m 76.06425,27.1345 H 536.52924 V 1775 h -7.90643 v -61.7544 h 7.90643 v 27.1813 h 29.61403 v -27.1813 h 7.90644 V 1775 h -7.90644 z m 25.53807,-34.386 h 36.49123 v 7.2515 h -28.5848 v 20.0234 h 28.0234 v 7.0643 h -28.0234 v 20.1637 h 28.5848 V 1775 h -36.49123 z m 120.03504,34.386 H 682.10235 V 1775 h -7.90644 v -61.7544 h 7.90644 v 27.1813 h 29.61403 v -27.1813 h 7.90644 V 1775 h -7.90644 z m 22.45035,-3.5556 q 0,-6.7368 2.2924,-12.538 2.33918,-5.8479 6.50292,-10.1988 4.16374,-4.3509 9.73099,-6.7836 5.61404,-2.4328 12.16375,-2.4328 6.59649,0 12.16374,2.4328 5.61403,2.4327 9.73099,6.7836 4.16375,4.3509 6.45614,10.1988 2.2924,5.8012 2.2924,12.538 0,6.7836 -2.2924,12.6316 -2.24561,5.8012 -6.36257,10.1988 -4.11696,4.3509 -9.73099,6.7837 -5.61404,2.4327 -12.25731,2.4327 -6.69006,0 -12.3041,-2.4327 -5.61403,-2.4328 -9.77778,-6.7837 -4.11695,-4.3976 -6.36257,-10.1988 -2.24561,-5.848 -2.24561,-12.6316 z m 8.2807,0 q 0,6.8772 2.8538,12.3977 2.90059,5.5205 7.95322,8.7953 5.05263,3.2281 11.60234,3.2281 6.5497,0 11.60234,-3.2281 5.05263,-3.2748 7.90643,-8.7953 2.8538,-5.5205 2.8538,-12.3977 0,-6.8772 -2.8538,-12.3976 -2.8538,-5.5205 -7.90643,-8.7018 -5.05264,-3.2281 -11.60234,-3.2281 -6.54971,0 -11.60234,3.2281 -5.05263,3.1813 -7.95322,8.7018 -2.8538,5.5204 -2.8538,12.3976 z m 123.26899,-30.8304 V 1775 h -7.95321 v -44.5848 l 0.42105,-6.8304 -1.68421,7.5322 -14.8772,40.3742 h -7.90643 l -14.87719,-40.3742 -1.63743,-7.5322 0.37427,6.8304 V 1775 h -8 v -61.7544 h 10.66667 l 16.8421,48.4679 0.56141,3.1345 0.60818,-3.1345 16.88889,-48.4679 z m 18.14612,0 h 36.49123 v 7.2515 h -28.5848 v 20.0234 h 28.0234 v 7.0643 h -28.0234 v 20.1637 h 28.5848 V 1775 h -36.49123 z"
     id="text1"
     class="title"
     style="font-size:93.5673px;font-family:'League Spartan';letter-spacing:5px;text-anchor:middle;fill:#ffffff"
     aria-label="THE HOME" />
  <path
     d="m 360.97087,1813.2456 h 8.32748 L 392.12876,1875 h -8.5614 l -5.33333,-14.8772 H 352.03519 L 346.60829,1875 h -8.5614 z m -6.36258,39.6725 h 21.09942 l -10.47953,-29.8479 h -0.14035 z M 443.25743,1875 411.81883,1821.7134 V 1875 h -8 v -61.7544 h 11.27485 l 31.53217,53.2398 v -53.2398 h 8 V 1875 Z m 28.76604,-61.7544 h 14.54971 q 9.87134,0 16.23391,3.9766 6.40936,3.9298 9.49708,10.9006 3.08772,6.9708 3.08772,15.9532 0,9.0293 -3.08772,16 -3.08772,6.9708 -9.45029,10.9474 -6.36257,3.9766 -16.2807,3.9766 h -14.54971 z m 7.95321,7.2983 v 47.1579 h 5.94153 q 7.25146,0 11.88304,-3.041 4.67836,-3.0409 6.87719,-8.3275 2.24561,-5.3333 2.2924,-12.1637 0,-6.8304 -2.19883,-12.1638 -2.19883,-5.3333 -6.8772,-8.3742 -4.67836,-3.0877 -11.9766,-3.0877 z m 91.6842,-0.047 h -16.65497 v -7.2515 h 41.35672 v 7.2515 H 579.70766 V 1875 h -8.04678 z m 76.06427,27.1345 H 618.11112 V 1875 h -7.90644 v -61.7544 h 7.90644 v 27.1813 h 29.61403 v -27.1813 h 7.90643 V 1875 h -7.90643 z m 25.53807,-34.386 h 36.49122 v 7.2515 h -28.58479 v 20.0234 h 28.02339 v 7.0643 h -28.02339 v 20.1637 h 28.58479 V 1875 H 673.26322 Z M 809.95321,1875 H 799.89473 L 787.54385,1825.6433 775.19298,1875 H 765.1345 l -13.00585,-61.7544 h 9.12281 l 9.35672,51.0877 13.28655,-51.0877 h 7.29825 l 13.33333,51.0409 9.35673,-51.0409 h 9.07602 z m 24.32153,-30.924 q 0,-6.7368 2.2924,-12.538 2.33918,-5.8479 6.50292,-10.1988 4.16374,-4.3509 9.731,-6.7836 5.61403,-2.4328 12.16374,-2.4328 6.59649,0 12.16374,2.4328 5.61404,2.4327 9.731,6.7836 4.16374,4.3509 6.45614,10.1988 2.29239,5.8012 2.29239,12.538 0,6.7836 -2.29239,12.6316 -2.24562,5.8012 -6.36258,10.1988 -4.11696,4.3509 -9.73099,6.7837 -5.61404,2.4327 -12.25731,2.4327 -6.69006,0 -12.3041,-2.4327 -5.61403,-2.4328 -9.77777,-6.7837 -4.11696,-4.3976 -6.36258,-10.1988 -2.24561,-5.848 -2.24561,-12.6316 z m 8.2807,0 q 0,6.8772 2.8538,12.3977 2.90059,5.5205 7.95322,8.7953 5.05263,3.2281 11.60234,3.2281 6.54971,0 11.60234,-3.2281 5.05263,-3.2748 7.90643,-8.7953 2.8538,-5.5205 2.8538,-12.3977 0,-6.8772 -2.8538,-12.3976 -2.8538,-5.5205 -7.90643,-8.7018 -5.05263,-3.2281 -11.60234,-3.2281 -6.54971,0 -11.60234,3.2281 -5.05263,3.1813 -7.95322,8.7018 -2.8538,5.5204 -2.8538,12.3976 z m 67.36256,-30.8304 h 21.56725 q 5.00585,0 9.12281,2.1053 4.11696,2.0585 6.54971,6.0818 2.43275,3.9767 2.43275,9.731 0,5.7076 -2.2924,9.4503 -2.24562,3.7427 -5.4269,5.6609 -3.18129,1.8713 -5.89474,2.0584 L 951.27473,1875 h -9.07603 l -14.31579,-26.1053 H 917.918 V 1875 h -8 z m 8,29.7076 h 10.76023 q 5.52047,0 9.12281,-2.7602 3.60234,-2.7603 3.60234,-8.8421 0,-6.0819 -3.60234,-8.7486 -3.55555,-2.6666 -9.07602,-2.6666 H 917.918 Z m 48.88312,-29.7076 h 8 v 54.5029 h 24.2807 V 1875 h -32.2807 z m 47.71348,0 h 14.5497 q 9.8713,0 16.2339,3.9766 6.4093,3.9298 9.4971,10.9006 3.0877,6.9708 3.0877,15.9532 0,9.0293 -3.0877,16 -3.0878,6.9708 -9.4503,10.9474 -6.3626,3.9766 -16.2807,3.9766 h -14.5497 z m 7.9532,7.2983 v 47.1579 h 5.9415 q 7.2515,0 11.883,-3.041 4.6784,-3.0409 6.8772,-8.3275 2.2456,-5.3333 2.2924,-12.1637 0,-6.8304 -2.1988,-12.1638 -2.1988,-5.3333 -6.8772,-8.3742 -4.6784,-3.0877 -11.9766,-3.0877 z"
     id="text2"
     class="title"
     style="font-size:93.5673px;font-family:'League Spartan';letter-spacing:5px;text-anchor:middle;fill:#ffffff"
     aria-label="AND THE WORLD" />
  <path
     d="m 415.53614,1944.1226 h 10.78371 q 2.50294,0 4.56144,1.0526 2.05849,1.0292 3.27488,3.041 1.21638,1.9883 1.21638,4.8655 0,2.8538 -1.14621,4.7252 -1.12281,1.8713 -2.71347,2.8304 -1.59065,0.9357 -2.94739,1.0293 L 436.21466,1975 h -4.53804 l -7.15796,-13.0527 h -4.98249 V 1975 h -4.00003 z m 4.00003,14.8539 h 5.38016 q 2.76025,0 4.56144,-1.3801 1.80118,-1.3802 1.80118,-4.4211 0,-3.041 -1.80118,-4.3743 -1.77779,-1.3334 -4.53805,-1.3334 h -5.40355 z m 34.05287,-14.8539 h 4.16378 L 469.16812,1975 h -4.28074 l -2.66669,-7.4387 H 449.12117 L 446.4077,1975 h -4.28074 z m -3.18131,19.8364 h 10.54979 l -5.2398,-14.9241 h -0.0702 z m 27.08205,-19.8364 h 8.58487 q 2.52633,0 4.74857,0.6783 2.22224,0.6784 3.60237,2.2924 1.38013,1.6141 1.38013,4.4913 0,1.9415 -0.77194,3.5322 -0.74854,1.5673 -1.89475,2.5497 -1.12281,0.9825 -2.19885,1.1696 1.193,0.117 2.66669,0.9357 1.49709,0.8187 2.57312,2.4328 1.09943,1.614 1.09943,4.117 0,3.8129 -2.3392,6.2456 -2.31581,2.4328 -7.11117,2.4328 h -10.33927 z m 3.97664,13.4738 h 5.16964 q 1.77779,0 2.924,-0.772 1.1462,-0.7953 1.70761,-2.0117 0.56141,-1.2398 0.56141,-2.5497 0,-2.6901 -1.59066,-3.7427 -1.56726,-1.0527 -4.21056,-1.0527 h -4.56144 z m 0,14.0585 h 5.96496 q 2.22224,0 3.46202,-0.7719 1.23978,-0.7953 1.73101,-2.0585 0.49123,-1.2632 0.49123,-2.6901 0,-2.3626 -1.54387,-3.8129 -1.54387,-1.4503 -4.46787,-1.4503 h -5.63748 z m 26.28669,-27.5323 h 4.02343 V 1975 h -4.02343 z M 543.06912,1975 527.3497,1948.3565 V 1975 h -4.00003 v -30.8774 h 5.63747 l 15.76621,26.6201 v -26.6201 h 4.00003 V 1975 Z m 16.88312,-30.8774 h 7.27491 q 4.93572,0 8.11703,1.9883 3.2047,1.9649 4.74857,5.4503 1.54388,3.4854 1.54388,7.9767 0,4.5146 -1.54388,8.0001 -1.54387,3.4854 -4.72518,5.4737 -3.18131,1.9883 -8.14042,1.9883 h -7.27491 z m 3.97664,3.6491 v 23.5791 h 2.97079 q 3.62576,0 5.94156,-1.5204 2.3392,-1.5205 3.43863,-4.1638 1.12281,-2.6667 1.14621,-6.0819 0,-3.4153 -1.09943,-6.0819 -1.09942,-2.6667 -3.43862,-4.1872 -2.3392,-1.5439 -5.98835,-1.5439 z m 27.78378,-3.6491 h 10.78372 q 2.50294,0 4.56144,1.0526 2.05849,1.0292 3.27488,3.041 1.21638,1.9883 1.21638,4.8655 0,2.8538 -1.14621,4.7252 -1.12281,1.8713 -2.71347,2.8304 -1.59066,0.9357 -2.94739,1.0293 L 612.39119,1975 h -4.53805 l -7.15795,-13.0527 H 595.7127 V 1975 h -4.00004 z m 4.00004,14.8539 h 5.38016 q 2.76025,0 4.56144,-1.3801 1.80118,-1.3802 1.80118,-4.4211 0,-3.041 -1.80118,-4.3743 -1.7778,-1.3334 -4.53805,-1.3334 h -5.40355 z m 34.05287,-14.8539 h 4.16378 L 645.34464,1975 h -4.28073 l -2.66669,-7.4387 H 625.2977 L 622.58423,1975 h -4.28074 z m -3.18131,19.8364 h 10.54979 l -5.23981,-14.9241 h -0.0702 z M 673.40917,1975 657.68975,1948.3565 V 1975 h -4.00003 v -30.8774 h 5.63747 l 15.76621,26.6201 v -26.6201 h 4.00003 V 1975 Z m 26.33347,-30.8774 h 4.16377 L 715.32171,1975 h -4.28074 l -2.66669,-7.4387 H 695.27476 L 692.56129,1975 h -4.28073 z m -3.18132,19.8364 h 10.5498 l -5.23981,-14.9241 h -0.0702 z m 30.47393,-16.2107 h -8.32755 v -3.6257 h 20.67853 v 3.6257 h -8.32756 V 1975 h -4.02342 z m 40.53243,13.5674 H 752.76055 V 1975 h -3.95325 v -30.8774 h 3.95325 v 13.5907 h 14.80713 v -13.5907 h 3.95325 V 1975 h -3.95325 z m 38.30436,-13.5674 h -8.32755 v -3.6257 h 20.67853 v 3.6257 h -8.32755 V 1975 h -4.02343 z m 27.50307,-3.6257 h 4.16378 L 848.95419,1975 h -4.28074 l -2.66669,-7.4387 H 828.90724 L 826.19377,1975 h -4.28074 z m -3.18131,19.8364 h 10.54979 l -5.2398,-14.9241 h -0.0702 z m 39.85408,-5.7311 h 15.57907 v 1.6843 q 0,3.2281 -1.12282,6.0585 -1.12281,2.8304 -3.18131,5.0059 -2.0351,2.152 -4.81875,3.3684 -2.76026,1.2164 -6.03514,1.2164 -3.36845,0 -6.17549,-1.2398 -2.80704,-1.2631 -4.86553,-3.462 -2.0585,-2.2222 -3.18131,-5.1228 -1.12282,-2.9006 -1.12282,-6.1989 0,-3.2749 1.12282,-6.1755 1.12281,-2.9006 3.18131,-5.0995 2.05849,-2.1988 4.86553,-3.4386 2.80704,-1.2631 6.17549,-1.2631 3.06435,0 5.42695,0.8888 2.36259,0.8889 4.0936,2.3392 1.731,1.427 2.9006,3.1112 l -3.62576,1.9415 q -1.40352,-1.9415 -3.60236,-3.2047 -2.19885,-1.2632 -5.19303,-1.2632 -3.27488,0 -5.80121,1.6609 -2.52634,1.6608 -3.97664,4.4211 -1.42692,2.7602 -1.42692,6.0819 0,3.3217 1.42692,6.1053 1.4503,2.7603 3.97664,4.4445 2.52633,1.6608 5.80121,1.6608 3.08775,0 5.45034,-1.3801 2.36259,-1.3801 3.74272,-3.696 1.40352,-2.3392 1.54387,-5.2164 h -11.15798 z m 23.71359,1.31 q 0,-3.3685 1.14621,-6.2691 1.1696,-2.924 3.25149,-5.0994 2.08189,-2.1755 4.86554,-3.3919 2.80704,-1.2163 6.08192,-1.2163 3.29827,0 6.08192,1.2163 2.80704,1.2164 4.86553,3.3919 2.08189,2.1754 3.2281,5.0994 1.14621,2.9006 1.14621,6.2691 0,3.3918 -1.14621,6.3158 -1.12282,2.9006 -3.18131,5.0995 -2.0585,2.1754 -4.86554,3.3918 -2.80704,1.2164 -6.1287,1.2164 -3.34506,0 -6.1521,-1.2164 -2.80704,-1.2164 -4.88893,-3.3918 -2.05849,-2.1989 -3.18131,-5.0995 -1.12282,-2.924 -1.12282,-6.3158 z m 4.14039,0 q 0,3.4386 1.42691,6.1989 1.4503,2.7602 3.97664,4.3977 2.52634,1.614 5.80122,1.614 3.27488,0 5.80121,-1.614 2.52634,-1.6375 3.95325,-4.3977 1.42691,-2.7603 1.42691,-6.1989 0,-3.4386 -1.42691,-6.1989 -1.42691,-2.7602 -3.95325,-4.3509 -2.52633,-1.6141 -5.80121,-1.6141 -3.27488,0 -5.80122,1.6141 -2.52634,1.5907 -3.97664,4.3509 -1.42691,2.7603 -1.42691,6.1989 z m 36.18152,-15.4153 h 10.78371 q 2.50294,0 4.56144,1.0526 2.0585,1.0292 3.27488,3.041 1.21638,1.9883 1.21638,4.8655 0,2.8538 -1.1462,4.7252 -1.12282,1.8713 -2.71348,2.8304 -1.59065,0.9357 -2.94739,1.0293 L 954.76191,1975 h -4.53805 l -7.15795,-13.0527 h -4.9825 V 1975 h -4.00003 z m 4.00003,14.8539 h 5.38016 q 2.76026,0 4.56144,-1.3801 1.80118,-1.3802 1.80118,-4.4211 0,-3.041 -1.80118,-4.3743 -1.77779,-1.3334 -4.53805,-1.3334 h -5.40355 z m 26.96513,-14.8539 h 18.24576 v 3.6257 h -14.29251 v 10.0118 h 14.01181 v 3.5322 h -14.01181 v 10.0819 H 983.2943 V 1975 h -18.24576 z"
     id="text3"
     class="author"
     style="font-size:46.784px;font-family:'League Spartan';letter-spacing:5px;text-anchor:middle;fill:#ffffff"
     aria-label="RABINDRANATH TAGORE" />
  <metadata
     id="metadata3">
    <rdf:RDF>
      <cc:Work
         rdf:about="">
        <dc:title>The cover for the Standard Ebooks edition of The Home and the World, by Rabindranath Tagore. Translated by Surendranath Tagore</dc:title>
      </cc:Work>
    </rdf:RDF>
  </metadata>
</svg>
