<?xml version="1.0" encoding="UTF-8" standalone="no"?>
<svg
   version="1.1"
   viewBox="0 0 1400 690"
   id="svg5"
   sodipodi:docname="titlepage.svg"
   inkscape:version="1.4.4 (dcaf3e7, 2026-05-05)"
   xmlns:inkscape="http://www.inkscape.org/namespaces/inkscape"
   xmlns:sodipodi="http://sodipodi.sourceforge.net/DTD/sodipodi-0.dtd"
   xmlns="http://www.w3.org/2000/svg"
   xmlns:svg="http://www.w3.org/2000/svg"
   xmlns:rdf="http://www.w3.org/1999/02/22-rdf-syntax-ns#"
   xmlns:cc="http://creativecommons.org/ns#"
   xmlns:dc="http://purl.org/dc/elements/1.1/">
  <defs
     id="defs5" />
  <sodipodi:namedview
     id="namedview5"
     pagecolor="#ffffff"
     bordercolor="#000000"
     borderopacity="0.25"
     inkscape:showpageshadow="2"
     inkscape:pageopacity="0.0"
     inkscape:pagecheckerboard="0"
     inkscape:deskcolor="#d1d1d1"
     inkscape:zoom="0.15072464"
     inkscape:cx="1048.2692"
     inkscape:cy="524.13462"
     inkscape:window-width="1015"
     inkscape:window-height="411"
     inkscape:window-x="0"
     inkscape:window-y="30"
     inkscape:window-maximized="0"
     inkscape:current-layer="svg5" />
  <title
     id="title1">The titlepage for the Standard Ebooks edition of The Home and the World, by Rabindranath Tagore. Translated by Surendranath Tagore</title>
  <style
     type="text/css"
     id="style1">
		text{
			font-family: &quot;League Spartan&quot;;
			letter-spacing: 5px;
			text-anchor: middle;
		}

		.title{
			font-size: 93.56725311px;
		}

		.author{
			font-size: 70.17543793px;
		}

		.contributor-descriptor{
			font-family: &quot;OFL Sorts Mill Goudy&quot;;
			font-size: 42.5079689px;
			font-style: italic;
			letter-spacing: 0;
		}

		.contributor{
			font-size: 46.78362656px;
		}
	</style>
  <path
     d="m 490.07902,75.497075 h -16.65497 v -7.251462 h 41.35672 v 7.251462 H 498.1258 V 130 h -8.04678 z m 76.06425,27.134505 H 536.52924 V 130 h -7.90643 V 68.245613 h 7.90643 V 95.4269 h 29.61403 V 68.245613 h 7.90644 V 130 h -7.90644 z m 25.53807,-34.385967 h 36.49123 v 7.251462 h -28.5848 v 20.023392 h 28.0234 v 7.064323 h -28.0234 v 20.16375 h 28.5848 V 130 H 591.68134 Z M 711.71638,102.63158 H 682.10235 V 130 h -7.90644 V 68.245613 h 7.90644 V 95.4269 h 29.61403 V 68.245613 h 7.90644 V 130 h -7.90644 z m 22.45035,-3.555557 q 0,-6.736842 2.2924,-12.538012 2.33918,-5.847953 6.50292,-10.198831 4.16374,-4.350877 9.73099,-6.783626 5.61404,-2.432748 12.16375,-2.432748 6.59649,0 12.16374,2.432748 5.61403,2.432749 9.73099,6.783626 4.16375,4.350878 6.45614,10.198831 2.2924,5.80117 2.2924,12.538012 0,6.783627 -2.2924,12.631577 -2.24561,5.80117 -6.36257,10.19883 -4.11696,4.35088 -9.73099,6.78363 -5.61404,2.43275 -12.25731,2.43275 -6.69006,0 -12.3041,-2.43275 -5.61403,-2.43275 -9.77778,-6.78363 -4.11695,-4.39766 -6.36257,-10.19883 -2.24561,-5.84795 -2.24561,-12.631577 z m 8.2807,0 q 0,6.877197 2.8538,12.397657 2.90059,5.52047 7.95322,8.79533 5.05263,3.22807 11.60234,3.22807 6.5497,0 11.60234,-3.22807 5.05263,-3.27486 7.90643,-8.79533 2.8538,-5.52046 2.8538,-12.397657 0,-6.877193 -2.8538,-12.397661 -2.8538,-5.520468 -7.90643,-8.701755 -5.05264,-3.22807 -11.60234,-3.22807 -6.54971,0 -11.60234,3.22807 -5.05263,3.181287 -7.95322,8.701755 -2.8538,5.520468 -2.8538,12.397661 z M 865.71642,68.245613 V 130 h -7.95321 V 85.415204 l 0.42105,-6.83041 -1.68421,7.532164 -14.8772,40.374272 h -7.90643 l -14.87719,-40.374272 -1.63743,-7.532164 0.37427,6.83041 V 130 h -8 V 68.245613 h 10.66667 l 16.8421,48.467837 0.56141,3.1345 0.60818,-3.1345 16.88889,-48.467837 z m 18.14612,0 h 36.49123 v 7.251462 h -28.5848 v 20.023392 h 28.0234 v 7.064323 h -28.0234 v 20.16375 h 28.5848 V 130 h -36.49123 z"
     id="text1"
     class="title"
     style="font-size:93.5673px;font-family:'League Spartan';letter-spacing:5px;text-anchor:middle"
     aria-label="THE HOME" />
  <path
     d="m 360.97087,168.24561 h 8.32748 L 392.12876,230 h -8.5614 l -5.33333,-14.87719 H 352.03519 L 346.60829,230 h -8.5614 z m -6.36258,39.67252 h 21.09942 l -10.47953,-29.84796 h -0.14035 z M 443.25743,230 411.81883,176.71345 V 230 h -8 v -61.75439 h 11.27485 l 31.53217,53.23977 v -53.23977 h 8 V 230 Z m 28.76604,-61.75439 h 14.54971 q 9.87134,0 16.23391,3.97661 6.40936,3.92983 9.49708,10.90059 3.08772,6.97076 3.08772,15.95321 0,9.02924 -3.08772,16 -3.08772,6.97076 -9.45029,10.94737 Q 496.49131,230 486.57318,230 h -14.54971 z m 7.95321,7.29825 v 47.15789 h 5.94153 q 7.25146,0 11.88304,-3.04093 4.67836,-3.04094 6.87719,-8.32749 2.24561,-5.33333 2.2924,-12.16374 0,-6.83041 -2.19883,-12.16374 -2.19883,-5.33334 -6.8772,-8.37427 -4.67836,-3.08772 -11.9766,-3.08772 z m 91.6842,-0.0468 h -16.65497 v -7.25147 h 41.35672 v 7.25147 H 579.70766 V 230 h -8.04678 z m 76.06427,27.1345 H 618.11112 V 230 h -7.90644 v -61.75439 h 7.90644 v 27.18129 h 29.61403 v -27.18129 h 7.90643 V 230 h -7.90643 z m 25.53807,-34.38597 h 36.49122 v 7.25147 h -28.58479 v 20.02339 h 28.02339 v 7.06432 h -28.02339 v 20.16375 h 28.58479 V 230 H 673.26322 Z M 809.95321,230 H 799.89473 L 787.54385,180.64327 775.19298,230 H 765.1345 l -13.00585,-61.75439 h 9.12281 l 9.35672,51.08772 13.28655,-51.08772 h 7.29825 l 13.33333,51.04094 9.35673,-51.04094 h 9.07602 z m 24.32153,-30.92398 q 0,-6.73684 2.2924,-12.53801 2.33918,-5.84795 6.50292,-10.19883 4.16374,-4.35088 9.731,-6.78363 5.61403,-2.43274 12.16374,-2.43274 6.59649,0 12.16374,2.43274 5.61404,2.43275 9.731,6.78363 4.16374,4.35088 6.45614,10.19883 2.29239,5.80117 2.29239,12.53801 0,6.78363 -2.29239,12.63158 -2.24562,5.80117 -6.36258,10.19883 -4.11696,4.35088 -9.73099,6.78363 -5.61404,2.43275 -12.25731,2.43275 -6.69006,0 -12.3041,-2.43275 -5.61403,-2.43275 -9.77777,-6.78363 -4.11696,-4.39766 -6.36258,-10.19883 -2.24561,-5.84795 -2.24561,-12.63158 z m 8.2807,0 q 0,6.8772 2.8538,12.39766 2.90059,5.52047 7.95322,8.79533 5.05263,3.22807 11.60234,3.22807 6.54971,0 11.60234,-3.22807 5.05263,-3.27486 7.90643,-8.79533 2.8538,-5.52046 2.8538,-12.39766 0,-6.87719 -2.8538,-12.39766 -2.8538,-5.52047 -7.90643,-8.70175 -5.05263,-3.22807 -11.60234,-3.22807 -6.54971,0 -11.60234,3.22807 -5.05263,3.18128 -7.95322,8.70175 -2.8538,5.52047 -2.8538,12.39766 z M 909.918,168.24561 h 21.56725 q 5.00585,0 9.12281,2.10527 4.11696,2.05848 6.54971,6.08187 2.43275,3.97661 2.43275,9.73099 0,5.7076 -2.2924,9.45029 -2.24562,3.74269 -5.4269,5.66082 -3.18129,1.87135 -5.89474,2.05848 L 951.27473,230 H 942.1987 L 927.88291,203.89474 H 917.918 V 230 h -8 z m 8,29.70761 h 10.76023 q 5.52047,0 9.12281,-2.76024 3.60234,-2.76023 3.60234,-8.8421 0,-6.08188 -3.60234,-8.74854 -3.55555,-2.66667 -9.07602,-2.66667 H 917.918 Z m 48.88312,-29.70761 h 8 v 54.50293 h 24.2807 V 230 h -32.2807 z m 47.71348,0 h 14.5497 q 9.8713,0 16.2339,3.97661 6.4093,3.92983 9.4971,10.90059 3.0877,6.97076 3.0877,15.95321 0,9.02924 -3.0877,16 -3.0878,6.97076 -9.4503,10.94737 Q 1038.9824,230 1029.0643,230 h -14.5497 z m 7.9532,7.29825 v 47.15789 h 5.9415 q 7.2515,0 11.883,-3.04093 4.6784,-3.04094 6.8772,-8.32749 2.2456,-5.33333 2.2924,-12.16374 0,-6.83041 -2.1988,-12.16374 -2.1988,-5.33334 -6.8772,-8.37427 -4.6784,-3.08772 -11.9766,-3.08772 z"
     id="text2"
     class="title"
     style="font-size:93.5673px;font-family:'League Spartan';letter-spacing:5px;text-anchor:middle"
     aria-label="AND THE WORLD" />
  <path
     d="m 295.80708,343.68421 h 16.17544 q 3.75439,0 6.84211,1.57895 3.08772,1.54386 4.91228,4.5614 1.82456,2.98246 1.82456,7.29825 0,4.2807 -1.7193,7.08772 -1.68421,2.80701 -4.07017,4.24561 -2.38597,1.40351 -4.42106,1.54386 l 11.47369,20 h -6.80702 l -10.73684,-19.57895 h -7.47369 V 390 h -6 z m 6,22.2807 h 8.07018 q 4.14035,0 6.8421,-2.07017 2.70176,-2.07018 2.70176,-6.63158 0,-4.56141 -2.70176,-6.56141 -2.66666,-2 -6.80701,-2 h -8.10527 z m 48.57897,-22.2807 h 6.24561 L 373.75447,390 h -6.42105 l -4,-11.15789 H 343.68429 L 339.61412,390 h -6.42105 z m -4.77193,29.75439 h 15.82456 l -7.85965,-22.38597 h -0.10526 z m 38.12281,-29.75439 h 12.87719 q 3.78948,0 7.12281,1.01754 3.33333,1.01755 5.40351,3.4386 2.07018,2.42105 2.07018,6.73684 0,2.91228 -1.1579,5.29825 -1.12281,2.35088 -2.8421,3.82456 -1.68422,1.47368 -3.29825,1.75439 1.78947,0.17543 4,1.4035 2.24561,1.22808 3.85965,3.64913 1.64912,2.42105 1.64912,6.17544 0,5.71929 -3.50877,9.36842 Q 406.43869,390 399.2457,390 h -15.50877 z m 5.96491,20.21053 h 7.75439 q 2.66667,0 4.38596,-1.1579 1.7193,-1.19298 2.56141,-3.01754 0.8421,-1.85965 0.8421,-3.82456 0,-4.03509 -2.38596,-5.61404 -2.35088,-1.57895 -6.31579,-1.57895 h -6.84211 z m 0,21.08772 h 8.94737 q 3.33334,0 5.19298,-1.1579 1.85965,-1.19298 2.5965,-3.08772 0.73684,-1.89473 0.73684,-4.03509 0,-3.54386 -2.31579,-5.71929 -2.31579,-2.17544 -6.70176,-2.17544 h -8.45614 z m 36.92978,-41.29825 h 6.03508 V 390 h -6.03508 z M 477.10528,390 453.52633,350.03509 V 390 h -6 v -46.31579 h 8.45614 l 23.64912,39.92983 v -39.92983 h 6 V 390 Z m 22.82451,-46.31579 h 10.91228 q 7.40351,0 12.17544,2.98246 4.80702,2.94737 7.12281,8.17544 2.31579,5.22807 2.31579,11.96491 0,6.77193 -2.31579,12 -2.31579,5.22807 -7.08772,8.21052 Q 518.28067,390 510.84207,390 h -10.91228 z m 5.96492,5.47369 v 35.36842 h 4.45614 q 5.43859,0 8.91228,-2.28071 3.50877,-2.2807 5.15789,-6.24561 1.68421,-4 1.7193,-9.12281 0,-5.1228 -1.64912,-9.1228 -1.64913,-4 -5.1579,-6.28071 -3.50877,-2.31578 -8.98245,-2.31578 z m 39.17542,-5.47369 h 16.17544 q 3.75438,0 6.8421,1.57895 3.08772,1.54386 4.91228,4.5614 1.82457,2.98246 1.82457,7.29825 0,4.2807 -1.7193,7.08772 -1.68421,2.80701 -4.07018,4.24561 -2.38596,1.40351 -4.42105,1.54386 l 11.47368,20 h -6.80701 l -10.73685,-19.57895 h -7.47368 V 390 h -6 z m 6,22.2807 h 8.07018 q 4.14035,0 6.8421,-2.07017 2.70175,-2.07018 2.70175,-6.63158 0,-4.56141 -2.70175,-6.56141 -2.66667,-2 -6.80702,-2 h -8.10526 z m 48.57896,-22.2807 h 6.24561 L 623.01751,390 h -6.42106 l -4,-11.15789 H 592.94733 L 588.87716,390 h -6.42106 z m -4.77193,29.75439 h 15.82456 l -7.85965,-22.38597 h -0.10526 z M 662.61402,390 639.03507,350.03509 V 390 h -6 v -46.31579 h 8.45614 l 23.64913,39.92983 v -39.92983 h 6 V 390 Z m 36.99994,-46.31579 h 6.24561 L 722.98238,390 h -6.42105 l -4,-11.15789 H 692.91221 L 688.84203,390 h -6.42105 z m -4.77193,29.75439 h 15.82456 l -7.85965,-22.38597 h -0.10526 z m 43.2106,-24.31579 H 725.5614 v -5.4386 h 31.01754 v 5.4386 H 744.08771 V 390 h -6.03508 z m 58.29818,20.35087 H 774.14028 V 390 h -5.92982 v -46.31579 h 5.92982 v 20.38597 h 22.21053 v -20.38597 h 5.92982 V 390 h -5.92982 z m 52.45624,-20.35087 h -12.49123 v -5.4386 h 31.01755 v 5.4386 H 854.84214 V 390 h -6.03509 z m 38.7543,-5.4386 h 6.24561 L 910.92977,390 h -6.42105 l -4,-11.15789 H 880.85959 L 876.78942,390 h -6.42105 z m -4.77193,29.75439 h 15.82456 l -7.85965,-22.38597 h -0.10526 z m 57.2807,-8.59649 h 23.36842 v 2.52631 q 0,4.84211 -1.68421,9.08772 -1.68421,4.24561 -4.77193,7.50877 -3.05263,3.22807 -7.22807,5.05263 -4.14035,1.82457 -9.05263,1.82457 -5.05263,0 -9.26316,-1.85965 -4.21052,-1.89474 -7.29824,-5.19299 -3.08772,-3.33333 -4.77193,-7.68421 -1.68421,-4.35087 -1.68421,-9.29824 0,-4.91228 1.68421,-9.26316 1.68421,-4.35088 4.77193,-7.64912 3.08772,-3.29825 7.29824,-5.1579 4.21053,-1.89473 9.26316,-1.89473 4.59649,0 8.14035,1.33333 3.54386,1.33333 6.14035,3.50877 2.59649,2.14035 4.35088,4.66667 l -5.4386,2.91228 q -2.10526,-2.91228 -5.4035,-4.80702 -3.29825,-1.89474 -7.78948,-1.89474 -4.91228,0 -8.70175,2.49123 -3.78948,2.49123 -5.96492,6.63158 -2.14035,4.14035 -2.14035,9.12281 0,4.98245 2.14035,9.15789 2.17544,4.14035 5.96492,6.66667 3.78947,2.49123 8.70175,2.49123 4.63158,0 8.17544,-2.07018 3.54386,-2.07017 5.61403,-5.54386 2.10527,-3.50877 2.31579,-7.82456 h -16.73684 z m 33.07015,1.96491 q 0,-5.05263 1.7193,-9.40351 1.75439,-4.38597 4.87719,-7.64912 3.12281,-3.26316 7.29825,-5.08772 4.21053,-1.82456 9.12281,-1.82456 4.94738,0 9.12278,1.82456 4.2106,1.82456 7.2983,5.08772 3.1228,3.26315 4.8421,7.64912 1.7193,4.35088 1.7193,9.40351 0,5.08772 -1.7193,9.47368 -1.6842,4.35088 -4.772,7.64912 -3.0877,3.26316 -7.2982,5.08772 -4.2105,1.82457 -9.19298,1.82457 -5.01755,0 -9.22807,-1.82457 -4.21053,-1.82456 -7.33334,-5.08772 -3.08772,-3.29824 -4.77193,-7.64912 -1.68421,-4.38596 -1.68421,-9.47368 z m 6.21053,0 q 0,5.15789 2.14035,9.29824 2.17544,4.14035 5.96491,6.59649 3.78948,2.42106 8.70176,2.42106 4.91228,0 8.70178,-2.42106 3.7894,-2.45614 5.9298,-6.59649 2.1403,-4.14035 2.1403,-9.29824 0,-5.1579 -2.1403,-9.29825 -2.1404,-4.14035 -5.9298,-6.52631 -3.7895,-2.42106 -8.70178,-2.42106 -4.91228,0 -8.70176,2.42106 -3.78947,2.38596 -5.96491,6.52631 -2.14035,4.14035 -2.14035,9.29825 z m 51.772,-23.12281 h 16.1754 q 3.7544,0 6.8421,1.57895 3.0877,1.54386 4.9123,4.5614 1.8245,2.98246 1.8245,7.29825 0,4.2807 -1.7193,7.08772 -1.6842,2.80701 -4.0701,4.24561 -2.386,1.40351 -4.4211,1.54386 l 11.4737,20 h -6.807 l -10.7369,-19.57895 h -7.4736 V 390 h -6 z m 6,22.2807 h 8.0701 q 4.1404,0 6.8421,-2.07017 2.7018,-2.07018 2.7018,-6.63158 0,-4.56141 -2.7018,-6.56141 -2.6666,-2 -6.807,-2 h -8.1052 z m 37.9473,-22.2807 h 27.3685 v 5.4386 H 1081 v 15.01754 h 21.0175 v 5.29825 H 1081 v 15.1228 h 21.4386 V 390 h -27.3685 z"
     id="text3"
     class="author"
     style="font-size:70.1754px;font-family:'League Spartan';letter-spacing:5px;text-anchor:middle"
     aria-label="RABINDRANATH TAGORE" />
  <path
     d="m 577.67543,556.81572 -0.7057,3.15489 h -8.05326 l -2.49071,10.68926 q -0.20755,0.80948 -0.3736,1.86803 -0.16605,1.03779 -0.16605,1.66046 0,1.51518 0.76797,2.26239 0.76797,0.72646 2.84355,0.72646 0.85099,0 2.01332,-0.29059 1.18308,-0.29058 1.5982,-0.45663 h 0.20755 l -0.72645,3.36245 q -1.16233,0.29058 -2.4907,0.47739 -1.30762,0.1868 -2.32466,0.1868 -2.8643,0 -4.44175,-1.24535 -1.55668,-1.26611 -1.55668,-3.98512 0,-0.66419 0.083,-1.30762 0.10378,-0.66419 0.26982,-1.49442 l 2.88507,-12.45351 h -2.63599 l 0.70569,-3.15489 h 2.636 l 1.55668,-6.66262 h 3.9021 l -1.55669,6.66262 z m 18.07834,4.10966 h -0.20756 q -0.83023,-0.20756 -1.55668,-0.29058 -0.7057,-0.10378 -1.72274,-0.10378 -1.95105,0 -3.88134,0.8925 -1.90954,0.87174 -3.67379,2.1171 L 580.97561,580 H 577.032 l 5.29274,-23.18428 h 3.94361 l -0.78872,3.42472 q 2.76053,-1.9303 4.67006,-2.67751 1.9303,-0.74721 3.69454,-0.74721 1.01704,0 1.47367,0.0623 0.45663,0.0415 1.32837,0.1868 z m 16.39712,6.84943 q -3.1964,0.12453 -5.6871,0.49814 -2.46995,0.35285 -4.08891,1.03779 -1.68122,0.68494 -2.55296,1.86803 -0.87175,1.16232 -0.87175,2.90581 0,1.49443 1.01704,2.28315 1.01703,0.78872 3.15488,0.78872 1.88879,0 3.83984,-0.83023 1.9718,-0.85099 3.67378,-2.03408 z m -2.26239,9.75524 q -0.56041,0.3321 -1.53593,0.95477 -0.95477,0.60192 -1.95105,1.0378 -1.05855,0.47738 -2.36617,0.78872 -1.30762,0.33209 -3.0096,0.33209 -2.76052,0 -4.48326,-1.5982 -1.72273,-1.61895 -1.72273,-4.21344 0,-2.76052 1.20384,-4.6493 1.22459,-1.90954 3.61151,-3.11338 2.34541,-1.18308 5.64559,-1.70198 3.32094,-0.53965 7.55513,-0.66419 0.12453,-0.58116 0.20756,-0.99628 0.083,-0.43587 0.083,-0.8925 0,-0.99628 -0.39436,-1.61895 -0.39436,-0.62268 -1.12081,-0.99629 -0.72646,-0.3736 -1.70198,-0.49814 -0.95477,-0.14529 -2.1171,-0.14529 -1.76425,0 -4.02663,0.58117 -2.26239,0.5604 -3.67379,1.12081 h -0.20756 l 0.76797,-3.9021 q 1.18308,-0.31133 3.46623,-0.70569 2.28314,-0.39437 4.37948,-0.39437 4.31721,0 6.47582,1.34913 2.15861,1.34913 2.15861,4.27571 0,0.56041 -0.10378,1.20384 -0.083,0.62267 -0.20756,1.18308 L 613.18868,580 h -3.88134 z m 34.03959,-15.42159 q 0,0.49814 -0.10378,1.34913 -0.083,0.85099 -0.24907,1.49442 L 640.08825,580 h -3.90209 l 3.05111,-13.20072 q 0.24907,-1.10006 0.3736,-1.90953 0.14529,-0.83024 0.14529,-1.63972 0,-1.74349 -0.87174,-2.61523 -0.85099,-0.8925 -3.09263,-0.8925 -1.57744,0 -3.48698,0.87174 -1.88878,0.87175 -3.69454,2.07559 L 624.60439,580 h -3.90209 l 5.355,-23.18428 h 3.9021 l -0.60192,2.57373 q 2.22088,-1.55669 4.15117,-2.38693 1.95105,-0.83023 4.00588,-0.83023 3.03035,0 4.71158,1.53593 1.70198,1.51518 1.70198,4.40024 z m 10.91757,18.45195 q -2.59448,0 -4.64931,-0.64343 -2.03407,-0.64343 -3.40395,-1.39064 l 0.87174,-4.17193 h 0.20756 q 0.43587,0.37361 1.12082,0.8925 0.70569,0.49814 1.785,0.99628 0.97552,0.47739 2.22087,0.83024 1.26611,0.33209 2.69826,0.33209 2.92658,0 4.58705,-1.0793 1.66046,-1.07931 1.66046,-3.17565 0,-1.10006 -0.85099,-1.68122 -0.85099,-0.60192 -2.44919,-0.97553 -0.80947,-0.1868 -1.95105,-0.41511 -1.12081,-0.22832 -2.28314,-0.53966 -2.42843,-0.68494 -3.59076,-1.9718 -1.16233,-1.30762 -1.16233,-3.17564 0,-1.61896 0.7057,-3.03036 0.7057,-1.4114 2.09634,-2.59448 1.32838,-1.12081 3.3832,-1.80576 2.05483,-0.7057 4.56629,-0.7057 2.07558,0 4.13041,0.5189 2.07559,0.5189 3.38321,1.28686 l -0.83024,3.98512 h -0.20756 q -0.33209,-0.26982 -1.01703,-0.72645 -0.66419,-0.45663 -1.70198,-0.93401 -0.8925,-0.39436 -2.09634,-0.68495 -1.18309,-0.29058 -2.46995,-0.29058 -2.59448,0 -4.21343,1.10006 -1.61896,1.07931 -1.61896,2.96809 0,1.03779 0.78872,1.74349 0.78872,0.68494 2.40768,1.0793 1.01704,0.24907 2.1171,0.47739 1.12081,0.20756 2.1586,0.45663 2.40768,0.60192 3.61152,1.86802 1.2246,1.26611 1.2246,3.17565 0,1.5982 -0.76797,3.13413 -0.74721,1.51518 -2.17936,2.63599 -1.47367,1.18308 -3.57001,1.84727 -2.09634,0.66419 -4.71158,0.66419 z M 681.16407,547.70391 673.69197,580 h -3.9021 l 7.4721,-32.29609 z m 17.22735,20.0709 q -3.1964,0.12453 -5.6871,0.49814 -2.46995,0.35285 -4.0889,1.03779 -1.68123,0.68494 -2.55297,1.86803 -0.87175,1.16232 -0.87175,2.90581 0,1.49443 1.01704,2.28315 1.01703,0.78872 3.15489,0.78872 1.88878,0 3.83983,-0.83023 1.9718,-0.85099 3.67378,-2.03408 z m -2.26239,9.75524 q -0.56041,0.3321 -1.53593,0.95477 -0.95477,0.60192 -1.95105,1.0378 -1.05855,0.47738 -2.36617,0.78872 -1.30761,0.33209 -3.00959,0.33209 -2.76053,0 -4.48327,-1.5982 -1.72273,-1.61895 -1.72273,-4.21344 0,-2.76052 1.20384,-4.6493 1.22459,-1.90954 3.61151,-3.11338 2.34542,-1.18308 5.64559,-1.70198 3.32094,-0.53965 7.55513,-0.66419 0.12454,-0.58116 0.20756,-0.99628 0.083,-0.43587 0.083,-0.8925 0,-0.99628 -0.39436,-1.61895 -0.39436,-0.62268 -1.12081,-0.99629 -0.72646,-0.3736 -1.70198,-0.49814 -0.95477,-0.14529 -2.1171,-0.14529 -1.76425,0 -4.02663,0.58117 -2.26239,0.5604 -3.67379,1.12081 h -0.20756 l 0.76797,-3.9021 q 1.18308,-0.31133 3.46623,-0.70569 2.28314,-0.39437 4.37948,-0.39437 4.31722,0 6.47582,1.34913 2.15861,1.34913 2.15861,4.27571 0,0.56041 -0.10378,1.20384 -0.083,0.62267 -0.20756,1.18308 L 699.42921,580 h -3.88134 z m 28.2072,-20.71433 -0.7057,3.15489 h -8.05327 l -2.4907,10.68926 q -0.20756,0.80948 -0.3736,1.86803 -0.16605,1.03779 -0.16605,1.66046 0,1.51518 0.76797,2.26239 0.76796,0.72646 2.84355,0.72646 0.85099,0 2.01331,-0.29059 1.18309,-0.29058 1.5982,-0.45663 h 0.20756 l -0.72645,3.36245 q -1.16233,0.29058 -2.4907,0.47739 -1.30762,0.1868 -2.32466,0.1868 -2.8643,0 -4.44175,-1.24535 -1.55669,-1.26611 -1.55669,-3.98512 0,-0.66419 0.083,-1.30762 0.10378,-0.66419 0.26982,-1.49442 l 2.88506,-12.45351 h -2.63599 l 0.7057,-3.15489 h 2.63599 l 1.55669,-6.66262 h 3.9021 l -1.55669,6.66262 z m 18.11985,9.07031 q 0.10378,-0.60192 0.1453,-1.01704 0.0415,-0.41512 0.0415,-0.91326 0,-2.22087 -1.2246,-3.46622 -1.20384,-1.24535 -3.88134,-1.24535 -2.94733,0 -5.23047,1.82651 -2.28315,1.82651 -3.09262,4.81536 z m -7.80419,14.65362 q -4.81536,0 -7.55513,-2.26239 -2.73977,-2.26238 -2.73977,-6.62111 0,-6.37204 4.02663,-10.91757 4.02664,-4.56629 9.96281,-4.56629 3.94361,0 6.03995,1.97181 2.09634,1.95105 2.09634,5.50029 0,0.62268 -0.1868,1.97181 -0.16605,1.34913 -0.56041,3.13413 h -17.08206 q -0.12454,0.60192 -0.1868,1.18309 -0.0415,0.58116 -0.0415,1.0793 0,2.92657 1.78501,4.6078 1.785,1.66046 5.06442,1.66046 2.28315,0 4.69082,-0.8925 2.42844,-0.8925 4.06815,-2.01331 h 0.22831 l -0.85099,4.21343 q -1.03779,0.37361 -1.86802,0.68495 -0.83024,0.31133 -2.1171,0.62267 -1.28686,0.31134 -2.28314,0.47739 -0.99628,0.16604 -2.4907,0.16604 z M 775.29183,547.70391 767.81972,580 h -3.90209 l 0.5604,-2.42843 q -2.63599,1.80575 -4.25494,2.42843 -1.5982,0.64343 -3.48699,0.64343 -3.27942,0 -5.20971,-2.07558 -1.90954,-2.07559 -1.90954,-6.03995 0,-3.34169 1.03779,-6.30978 1.03779,-2.98884 2.8228,-5.23047 1.76424,-2.22088 4.17192,-3.50774 2.40768,-1.30762 5.10594,-1.30762 1.84727,0 3.40396,0.39436 1.55669,0.39436 2.90582,1.18309 l 2.32465,-10.04583 z m -6.97397,13.28374 q -1.39064,-0.72646 -2.73977,-1.05855 -1.32837,-0.35285 -2.84355,-0.35285 -2.15861,0 -3.86058,1.03779 -1.68123,1.03779 -2.88507,2.84355 -1.10006,1.63971 -1.70198,3.94361 -0.58116,2.3039 -0.58116,4.46251 0,2.53221 1.0793,3.88134 1.10006,1.32838 3.54925,1.32838 1.74349,0 3.54925,-0.87175 1.82652,-0.87174 3.36245,-1.90954 z m 45.68362,3.15489 q 0,3.3832 -1.05855,6.45506 -1.05855,3.07187 -2.82279,5.25123 -1.84727,2.28314 -4.13042,3.54925 -2.28314,1.24535 -5.04367,1.24535 -1.84727,0 -3.46622,-0.49814 -1.5982,-0.47738 -2.86431,-1.28686 L 794.09662,580 h -3.65303 l 7.45135,-32.29609 h 3.9021 l -2.65675,11.54025 q 1.9303,-1.34913 3.77757,-2.20012 1.84727,-0.87175 4.10965,-0.87175 3.38321,0 5.16821,2.09634 1.80576,2.09634 1.80576,5.87391 z m -6.41356,9.31937 q 1.16233,-1.80576 1.74349,-3.96437 0.58117,-2.1586 0.58117,-4.60779 0,-2.46995 -1.07931,-3.79832 -1.0793,-1.34913 -3.44547,-1.34913 -1.72273,0 -3.57,0.85099 -1.84727,0.85099 -3.44547,1.93029 l -3.05111,13.26298 q 1.32837,0.7057 2.57372,1.10006 1.26611,0.39436 3.0096,0.39436 2.15861,0 3.86059,-1.05854 1.70198,-1.05855 2.82279,-2.76053 z m 13.53282,15.0895 h -4.29646 l 6.74565,-9.90054 -4.19268,-21.83515 h 4.00588 l 3.27942,17.24811 11.08362,-17.24811 h 4.25495 z"
     id="text4"
     class="contributor-descriptor"
     style="font-style:italic;font-size:42.508px;font-family:'OFL Sorts Mill Goudy';letter-spacing:0;text-anchor:middle"
     aria-label="translated by" />
  <path
     d="m 416.89476,608.5614 q 2.66667,0 4.58479,0.60819 1.94153,0.60819 3.04094,1.28655 1.12281,0.67836 1.33333,0.88889 l -2.05848,3.29824 q -0.35087,-0.30409 -1.23976,-0.86549 -0.88889,-0.56141 -2.22222,-1.02924 -1.33334,-0.46784 -3.04094,-0.46784 -2.64327,0 -4.18713,1.07602 -1.52047,1.05264 -1.52047,2.99416 0,1.96491 1.77778,3.25146 1.77777,1.28655 4.74853,2.54971 2.12866,0.88889 4.14035,2.15204 2.03509,1.26316 3.34503,3.13451 1.30995,1.87134 1.30995,4.5614 0,2.66667 -1.42691,4.5848 -1.4035,1.91812 -3.83625,2.94736 -2.40936,1.02924 -5.40351,1.02924 -2.83041,0 -5.12281,-0.70175 -2.269,-0.70176 -3.67251,-1.45029 -1.38012,-0.77193 -1.59065,-0.98246 l 2.17544,-3.4386 q 0.37427,0.3041 1.54386,0.98246 1.19298,0.67836 2.92398,1.26316 1.75438,0.5614 3.83626,0.5614 3.1345,0 4.74853,-1.40351 1.61404,-1.40351 1.61404,-3.60234 0,-1.66082 -1.02924,-2.87719 -1.02924,-1.23977 -2.73684,-2.19883 -1.70761,-0.95906 -3.76608,-1.84795 -2.10527,-0.95907 -3.88305,-2.10527 -1.75438,-1.1462 -2.80701,-2.73684 -1.05263,-1.61403 -1.05263,-3.88304 0,-2.24561 1.28654,-3.95322 1.28655,-1.7076 3.4386,-2.66666 2.15205,-0.95907 4.74854,-0.95907 z m 39.38596,0.56141 h 4 v 19.18128 q 0,3.81287 -1.52047,6.5731 -1.49707,2.73685 -4.16374,4.21053 -2.66667,1.47368 -6.08187,1.47368 -3.4386,0 -6.10527,-1.47368 -2.66666,-1.47368 -4.18713,-4.21053 -1.52047,-2.76023 -1.52047,-6.5731 v -19.18128 h 3.97661 v 18.97076 q 0,2.69006 1.02924,4.65497 1.02924,1.96491 2.78363,3.04093 1.77777,1.05264 4.02339,1.05264 2.22222,0 3.97661,-1.05264 1.75438,-1.07602 2.76023,-3.04093 1.02924,-1.96491 1.02924,-4.65497 z m 14.77778,0 h 10.78362 q 2.50293,0 4.56141,1.05263 2.05848,1.02924 3.27485,3.04093 1.21638,1.98831 1.21638,4.8655 0,2.8538 -1.1462,4.72515 -1.12281,1.87134 -2.71345,2.83041 -1.59065,0.93567 -2.94737,1.02924 L 491.73686,640 h -4.53801 l -7.15789,-13.05263 H 475.0585 V 640 h -4 z m 4,14.8538 h 5.38012 q 2.76023,0 4.5614,-1.38012 1.80117,-1.38012 1.80117,-4.42105 0,-3.04094 -1.80117,-4.37427 -1.77778,-1.33333 -4.53801,-1.33333 h -5.40351 z m 26.96494,-14.8538 h 18.24561 v 3.62573 h -14.2924 v 10.01169 h 14.0117 v 3.53217 h -14.0117 v 10.08187 h 14.2924 V 640 H 502.02344 Z M 551.3275,640 535.6082,613.35672 V 640 h -4 v -30.87719 h 5.63743 l 15.76608,26.61988 v -26.61988 h 4 V 640 Z m 16.88302,-30.87719 h 7.27485 q 4.93567,0 8.11696,1.9883 3.20468,1.96491 4.74854,5.45029 1.54386,3.48538 1.54386,7.97661 0,4.51462 -1.54386,8 -1.54386,3.48538 -4.72515,5.47369 Q 580.44444,640 575.48537,640 h -7.27485 z m 3.97661,3.64912 v 23.57895 h 2.97076 q 3.62573,0 5.94152,-1.52047 2.33918,-1.52047 3.43859,-4.16374 1.12281,-2.66667 1.1462,-6.08187 0,-3.41521 -1.09941,-6.08188 -1.09942,-2.66666 -3.4386,-4.18713 -2.33918,-1.54386 -5.9883,-1.54386 z m 27.78361,-3.64912 h 10.78363 q 2.50292,0 4.5614,1.05263 2.05848,1.02924 3.27486,3.04093 1.21637,1.98831 1.21637,4.8655 0,2.8538 -1.1462,4.72515 -1.12281,1.87134 -2.71345,2.83041 -1.59064,0.93567 -2.94737,1.02924 L 620.6491,640 h -4.53801 l -7.15789,-13.05263 h -4.98246 V 640 h -4 z m 4,14.8538 h 5.38012 q 2.76023,0 4.5614,-1.38012 1.80117,-1.38012 1.80117,-4.42105 0,-3.04094 -1.80117,-4.37427 -1.77778,-1.33333 -4.53801,-1.33333 h -5.40351 z m 34.05263,-14.8538 h 4.16375 L 653.60232,640 h -4.2807 l -2.66667,-7.4386 H 633.55554 L 630.84209,640 h -4.2807 z m -3.18128,19.83625 h 10.54971 l -5.23977,-14.92397 h -0.0702 z M 681.66666,640 665.94737,613.35672 V 640 h -4 v -30.87719 h 5.63742 l 15.76608,26.61988 v -26.61988 h 4 V 640 Z m 26.33331,-30.87719 h 4.16374 L 723.57892,640 h -4.28071 l -2.66666,-7.4386 H 703.53213 L 700.81868,640 h -4.2807 z m -3.18129,19.83625 h 10.54971 l -5.23977,-14.92397 h -0.0702 z m 30.47374,-16.21052 h -8.32748 v -3.62573 h 20.67836 v 3.62573 h -8.32749 V 640 h -4.02339 z m 40.53212,13.56725 H 761.01753 V 640 h -3.95322 v -30.87719 h 3.95322 v 13.59064 h 14.80701 v -13.59064 h 3.95322 V 640 h -3.95322 z m 38.30412,-13.56725 h -8.32748 v -3.62573 h 20.67836 v 3.62573 h -8.32748 V 640 h -4.0234 z m 27.50293,-3.62573 h 4.16374 L 857.21054,640 h -4.2807 l -2.66667,-7.4386 H 837.16375 L 834.4503,640 h -4.2807 z m -3.18129,19.83625 h 10.54971 l -5.23976,-14.92397 h -0.0702 z m 39.85378,-5.73099 h 15.57894 v 1.68421 q 0,3.22807 -1.1228,6.05848 -1.12281,2.83041 -3.18129,5.00585 -2.03509,2.15204 -4.81871,3.36842 -2.76024,1.21637 -6.03509,1.21637 -3.36842,0 -6.17544,-1.23976 -2.80702,-1.26316 -4.8655,-3.46199 -2.05848,-2.22222 -3.18128,-5.12281 -1.12281,-2.90058 -1.12281,-6.19883 0,-3.27485 1.12281,-6.17544 1.1228,-2.90058 3.18128,-5.09941 2.05848,-2.19883 4.8655,-3.4386 2.80702,-1.26316 6.17544,-1.26316 3.06433,0 5.4269,0.88889 2.36257,0.88889 4.09357,2.33918 1.73099,1.4269 2.90058,3.11111 l -3.62573,1.94152 q -1.40351,-1.94152 -3.60234,-3.20467 -2.19883,-1.26316 -5.19298,-1.26316 -3.27486,0 -5.80117,1.66082 -2.52632,1.66082 -3.97661,4.42105 -1.4269,2.76023 -1.4269,6.08187 0,3.32164 1.4269,6.10526 1.45029,2.76024 3.97661,4.44445 2.52631,1.66082 5.80117,1.66082 3.08772,0 5.45029,-1.38012 2.36257,-1.38012 3.74269,-3.69591 1.40351,-2.33918 1.54386,-5.21637 h -11.15789 z m 23.71344,1.30994 q 0,-3.36842 1.1462,-6.269 1.16959,-2.92398 3.25146,-5.09942 2.08187,-2.17544 4.8655,-3.39181 2.80702,-1.21638 6.08187,-1.21638 3.29824,0 6.08187,1.21638 2.80702,1.21637 4.8655,3.39181 2.08187,2.17544 3.22807,5.09942 1.1462,2.90058 1.1462,6.269 0,3.39181 -1.1462,6.31579 -1.12281,2.90059 -3.18129,5.09942 -2.05848,2.17543 -4.8655,3.39181 -2.80701,1.21637 -6.12865,1.21637 -3.34503,0 -6.15205,-1.21637 -2.80702,-1.21638 -4.88889,-3.39181 -2.05848,-2.19883 -3.18128,-5.09942 -1.12281,-2.92398 -1.12281,-6.31579 z m 4.14035,0 q 0,3.4386 1.4269,6.19883 1.45029,2.76024 3.97661,4.39766 2.52632,1.61404 5.80117,1.61404 3.27485,0 5.80117,-1.61404 2.52631,-1.63742 3.95322,-4.39766 1.4269,-2.76023 1.4269,-6.19883 0,-3.4386 -1.4269,-6.19883 -1.42691,-2.76023 -3.95322,-4.35088 -2.52632,-1.61403 -5.80117,-1.61403 -3.27485,0 -5.80117,1.61403 -2.52632,1.59065 -3.97661,4.35088 -1.4269,2.76023 -1.4269,6.19883 z m 36.18126,-15.4152 h 10.78363 q 2.50292,0 4.5614,1.05263 2.05848,1.02924 3.27486,3.04093 1.21637,1.98831 1.21637,4.8655 0,2.8538 -1.1462,4.72515 -1.1228,1.87134 -2.71345,2.83041 -1.59064,0.93567 -2.94737,1.02924 L 963.0175,640 h -4.53801 l -7.1579,-13.05263 h -4.98246 V 640 h -4 z m 4,14.8538 h 5.38012 q 2.76024,0 4.56141,-1.38012 1.80117,-1.38012 1.80117,-4.42105 0,-3.04094 -1.80117,-4.37427 -1.77778,-1.33333 -4.53802,-1.33333 h -5.40351 z m 26.96499,-14.8538 h 18.24561 v 3.62573 h -14.2924 v 10.01169 h 14.0117 v 3.53217 h -14.0117 v 10.08187 h 14.2924 V 640 h -18.24561 z"
     id="text5"
     class="contributor"
     style="font-size:46.7836px;font-family:'League Spartan';letter-spacing:5px;text-anchor:middle"
     aria-label="SURENDRANATH TAGORE" />
  <metadata
     id="metadata5">
    <rdf:RDF>
      <cc:Work
         rdf:about="">
        <dc:title>The titlepage for the Standard Ebooks edition of The Home and the World, by Rabindranath Tagore. Translated by Surendranath Tagore</dc:title>
      </cc:Work>
    </rdf:RDF>
  </metadata>
</svg>
